<?xml version="1.0" encoding="utf-8"?>
<!-- Generator: Adobe Illustrator 15.1.0, SVG Export Plug-In . SVG Version: 6.00 Build 0)  -->
<!DOCTYPE svg PUBLIC "-//W3C//DTD SVG 1.1//EN" "http://www.w3.org/Graphics/SVG/1.1/DTD/svg11.dtd">
<svg version="1.1" id="Layer_1" xmlns="http://www.w3.org/2000/svg" xmlns:xlink="http://www.w3.org/1999/xlink" x="0px" y="0px"
	 width="275.1px" height="522.608px" viewBox="0 0 275.1 522.608" enable-background="new 0 0 275.1 522.608" xml:space="preserve">
<g>
	<path fill="#FFFFFF" d="M79.421,436.42c-7.744,2.626-61.371,0.842-65.091,3.464c-3.72,2.623-20.316,20.779-4.785,29.471
		c15.531,8.691,66.625,20.032,66.625,20.032L79.421,436.42z"/>
	<path fill="#F092B7" d="M14.33,439.884c-3.72,2.623-20.316,20.779-4.785,29.471c2.697,1.51,6.469,3.098,10.858,4.694
		c1.31-12.046,3.36-24.096,8.635-35.586C21.291,438.692,15.467,439.082,14.33,439.884z"/>
	<path fill="#FFFFFF" d="M68.021,390.439c-5.622,13.913-24.358,66.847-14.989,91.675c-21.548-1.408-46.375-7.965-44.501,10.303
		s2.81,25.295,21.079,25.763c18.268,0.47,102.117,14.991,125.539-11.241c23.419-26.232,4.216-84.787-4.685-91.812
		C141.564,408.099,68.021,390.439,68.021,390.439z"/>
	<path fill="#F092B7" d="M26.21,479.832c-10.946-0.231-18.76,2.039-17.679,12.585c1.874,18.268,2.81,25.295,21.079,25.763
		c1.62,0.043,3.763,0.196,6.326,0.421c-1.998-2.738-3.837-5.604-5.584-8.517C24.934,501.182,23.995,490.042,26.21,479.832z"/>
	<path fill="#FFFFFF" d="M134.308,418.991c2.796-6.366,7.182-12.491,17.176-13.116c9.992-0.626,17.799,1.875,23.107,13.116
		c5.31,11.241,26.545,61.519,30.292,71.826c3.748,10.305-5.31,12.491-16.551,15.927c-11.243,3.436-27.168-10.617-39.348-29.354
		C136.806,458.649,131.511,425.355,134.308,418.991z"/>
	<path fill="#F092B7" d="M199.625,476.76c-9.11,10.063-20.737,18.046-34.174,20.984c8.129,7.341,16.322,11.261,22.926,9.246
		c11.432-3.493,20.642-5.717,16.83-16.196C204.263,488.203,202.23,483.116,199.625,476.76z"/>
	<path fill="#F092B7" d="M61.733,426.634c-1.264-2.079-2.615-3.874-4.016-5.421c-4.012,14.425-7.45,31.035-7.255,44.855
		c2.635,2.702,4.436,4.333,4.436,4.333s34.076-15.416,36.755-32.497C94.331,420.825,77.252,412.273,61.733,426.634z"/>
	<g>
		<path fill="#F092B7" d="M149.115,131.902c3.062,11.921,24.74,40.397,22.266,67.959c-2.476,27.564-24.528,37.185-33.378,41.652"/>
		<g>
			<path fill="#FFD31C" d="M153.07,81.95c-5.103,9.652-7.622,23.26-5.624,31.298c13.382-6.517,23.964-14.374,31.907-21.556
				c4.25-8.068,3.785-18.578,1.67-27.724C173.576,70.13,164.287,76.501,153.07,81.95z"/>
			<path fill="#FFD31C" d="M147.061,115.823c-5.192,11.551-5.259,22.06-3.298,31.251c13.463-6.739,24.021-14.802,31.838-22.045
				c4.824-6.996,6.01-18.928,3.492-30.223C170.96,101.916,160.333,109.531,147.061,115.823z"/>
			<path fill="#FFD31C" d="M181.48,30.362c3.512-17.587-1.617-30.062-3.645-30.356c-2.611-0.379-13.273,17.245-15.654,42.866
				C169.532,38.938,175.955,34.64,181.48,30.362z"/>
			<path fill="#FFD31C" d="M143.648,149.538c-1.757,4.331-2.248,7.709-0.102,10.263l23.104,3.352
				c7.133-7.921,8.916-20.203,8.427-34.734C167.146,135.485,156.718,143.139,143.648,149.538z"/>
			<path fill="#FFD31C" d="M161.445,45.69c-4.48,10.561-8.242,21.084-7.822,33.584c11.123-5.573,20.264-12.042,27.509-18.21
				c4.139-10.142,2.912-18.499,0.386-28.021C175.755,37.403,169.074,41.748,161.445,45.69z"/>
		</g>
		<path fill="#FFFFFF" d="M252.695,313.098c-1.758-11.835-4.319-26.107-9.537-85.929c-0.378-4.35-1.035-8.477-1.924-12.406
			c57.654-42.559,24.875-94.773,13.34-107.106c-11.696-12.503-17.944,3.957-30.9,24.08c-10.783,16.749-22.809,19.946-33.832,23.271
			c-13.61-6.317-27.293-9.68-37.664-11.185c-9.396-1.362-21.829-2.039-35.121-0.525c-8.988-5.928-18.426-12.81-23.573-30.451
			C86.78,89.87,85.469,72.312,70.702,80.975c-14.11,8.278-57.973,46.775-21.443,101.167c-3.019,4.707-5.714,9.924-8,15.73
			c-22.005,55.872-28.518,68.825-33.567,79.674c-3.421,7.352-21.506,57.24,13.625,91.418
			c60.767,13.11,121.484,22.637,182.636,32.183C257.495,381.638,253.967,321.672,252.695,313.098z"/>
		<path fill="#F092B7" d="M257.144,110.659c5.09,36.651-18.102,63.067-25.461,68.563c3.293,1.247,9.21,31.19,9.551,35.54
			C306.662,166.582,257.144,110.659,257.144,110.659z"/>
		<path fill="#F092B7" d="M67.837,82.808c-15.297,33.693-1.154,65.374,4.339,72.734c-3.513,0.264-21.355,22.527-22.918,26.6
			C7.613,120.891,67.837,82.808,67.837,82.808z"/>
		<path fill="#F092B7" d="M212.912,397.252c-11.717-25.904-43.078-46.737-89.744-53.509c-46.665-6.771-97.014-16.496-118.917-1.396
			c0,0,13.189,55.908,111.504,67.486C184.15,417.89,212.912,397.252,212.912,397.252z"/>
		<path fill="#F092B7" d="M157.25,198.371c-6.524-5.578-10.507-12.721-16.654-18.243c-2.048-1.842-4.042-4.061-6.036-6.28
			c-2.049-1.842-4.744-4.548-5.385-8.116c-0.732-10.914,10.835-13.48,18.519-18.543c2.597-1.938,6.164-2.579,9.353-3.274
			c1.921-0.393,3.882-0.75,5.864-1.048c-4.87-2.324-10.363-4.246-16.536-5.64c-5.968-1.349-38.204-5.422-48.567,15.46
			c-10.365,20.887,10.446,39.731,29.704,53.335c19.257,13.602,18.096,23.469,0.976,34.11c12.034,1.991,31.982-4.122,46.883-15.68
			c0.211-1.48,0.334-2.977,0.363-4.484C175.056,208.674,164.8,204.871,157.25,198.371z"/>
		<path fill="#DF3F97" d="M169.345,140.56c-5.967-1.348-38.201-5.422-48.566,15.463c-10.364,20.883,10.447,39.732,29.705,53.332
			c19.256,13.604,18.096,23.47,0.976,34.113c19.093,3.155,58.116-14.082,65.274-41.097
			C221.854,183.04,210.835,149.934,169.345,140.56z"/>
		<path fill="#6D6E71" d="M78.297,267.646c-1.358,5.17-6.413,8.609-11.83,7.823c-5.822-0.846-9.858-6.251-9.013-12.072
			c0.665-4.579,4.149-8.051,8.438-8.917c-1.574-0.633-3.247-1.094-5-1.349c-11.832-1.717-22.815,6.481-24.532,18.312
			c-1.716,11.832,6.484,22.815,18.315,24.533s22.815-6.484,24.533-18.313C79.713,274.176,79.353,270.769,78.297,267.646z"/>
		<path fill="#6D6E71" d="M188.872,283.689c-1.358,5.173-6.412,8.609-11.829,7.824c-5.822-0.844-9.859-6.25-9.014-12.073
			c0.664-4.578,4.148-8.048,8.438-8.913c-1.574-0.636-3.246-1.099-5-1.353c-11.83-1.717-22.814,6.483-24.531,18.314
			c-1.716,11.832,6.483,22.814,18.314,24.533c11.832,1.715,22.815-6.484,24.532-18.316
			C190.288,290.222,189.927,286.811,188.872,283.689z"/>
		<path fill="#FFFFFF" d="M82.738,371.091c-0.562,3.873-7.492,6.076-15.479,4.917c-7.985-1.158-14.004-5.238-13.441-9.114
			c0.562-3.878,7.493-6.079,15.478-4.92C77.283,363.133,83.301,367.214,82.738,371.091z"/>
		<path fill="#FFFFFF" d="M136.28,378.859c-0.562,3.875-7.493,6.078-15.479,4.917c-7.986-1.156-14.003-5.238-13.441-9.114
			c0.563-3.876,7.492-6.079,15.478-4.92S136.842,374.98,136.28,378.859z"/>
		
			<ellipse transform="matrix(0.9896 0.1436 -0.1436 0.9896 45.1472 0.1671)" fill="#F092B7" cx="21.416" cy="312.934" rx="19.924" ry="9.668"/>
		
			<ellipse transform="matrix(0.9896 0.1436 -0.1436 0.9896 50.5664 -24.4477)" fill="#F092B7" cx="194.642" cy="338.069" rx="19.925" ry="9.669"/>
		<path fill="#966BAE" d="M226.968,124.401c-2.981-0.436-5.752,1.631-6.187,4.611c-0.263,1.805,0.393,3.529,1.609,4.705
			c-5.021,2.92-17.149,9.195-23.858,6.067c-7.969-3.714-8.623-18.382-3.186-29.4c0.447,0.203,0.928,0.353,1.437,0.428
			c2.857,0.413,5.513-1.562,5.929-4.419c0.416-2.859-1.562-5.515-4.42-5.932c-2.859-0.416-5.512,1.564-5.93,4.42
			c-0.277,1.908,0.248,3.494,1.654,4.614c-6.33,5.404-16.163,17.05-22.932,15.261c-6.942-1.835-8.759-21.812-6.664-37.119
			c3.117,0.011,5.262-2.117,5.725-5.294c0.508-3.479-1.901-6.71-5.381-7.216c-3.479-0.506-6.71,1.902-7.217,5.381
			c-0.508,3.479,0.896,6.255,4.375,6.766c0.065,0.008,0.13,0.01,0.196,0.019c-5.448,17.434-7.747,31.74-16,32.216
			c-8.013,0.462-16.535-11.506-19.664-20.763c2.414-0.262,3.678-1.975,4.045-4.488c0.434-2.984-1.631-5.753-4.613-6.188
			c-2.982-0.434-5.751,1.631-6.186,4.613c-0.435,2.981,1.631,5.751,4.612,6.188c0.221,0.031,0.439,0.046,0.657,0.051
			c0.215,11.334-2.498,27.473-10.319,28.406c-7.441,0.895-14.53-4.112-18.812-9.835c1.279-0.828,2.211-2.18,2.448-3.809
			c0.436-2.995-1.639-5.778-4.637-6.217c-2.996-0.436-5.78,1.64-6.217,4.638c-0.437,2.998,1.638,5.781,4.636,6.217
			c0.935,0.136,1.421,0.161,2.25-0.143c2.662,11.596,7.33,28.993,7.33,28.993c14.207-2.894,70.555-0.146,100.113,14.593
			c4.682-6.375,17.65-21.505,22.007-27.007c0.667,0.455,0.772,0.318,1.624,0.441c2.982,0.437,5.752-1.629,6.186-4.611
			C232.015,127.604,229.951,124.835,226.968,124.401z"/>
	</g>
</g>
</svg>
